<svg width="30" height="31" viewBox="0 0 30 31" fill="none" xmlns="http://www.w3.org/2000/svg">
<path d="M14.9305 20.1618C19.6094 20.1618 23.6045 21.1818 23.6045 25.2632C23.6045 29.3429 19.635 30.4 14.9305 30.4C10.2516 30.4 6.25648 29.3801 6.25648 25.3003C6.25648 21.2189 10.226 20.1618 14.9305 20.1618ZM22.4115 17.7042C24.2002 17.6586 26.1233 17.9963 26.8339 18.2361C28.3394 18.6431 29.3297 19.4739 29.7399 20.6812C30.0867 21.6725 30.0867 22.8224 29.7399 23.812C29.1123 25.6847 27.0891 26.2858 26.3028 26.4412C26.1404 26.475 26.0098 26.2808 26.0269 26.0562C26.4286 20.867 23.2332 18.4066 22.4066 17.841C22.3712 17.8156 22.3638 17.7768 22.3675 17.7531C22.3699 17.7363 22.3846 17.7092 22.4115 17.7042ZM7.25261 17.7007L7.58945 17.7048C7.61632 17.7099 7.62975 17.7369 7.63219 17.7521C7.63585 17.7775 7.62853 17.8146 7.59434 17.8416C6.7665 18.4073 3.57113 20.8677 3.97284 26.0552C3.98993 26.2814 3.86051 26.4739 3.69812 26.4419C2.91179 26.2865 0.888585 25.6853 0.26099 23.8126C-0.0869965 22.8214 -0.0869965 21.6731 0.26099 20.6819C0.671247 19.4745 1.66026 18.6437 3.16576 18.2351C3.8776 17.997 5.79946 17.6593 7.58945 17.7048L7.25261 17.7007ZM14.9305 0.400024C18.1161 0.400024 20.6704 3.92928 20.6704 8.33662C20.6704 12.7423 18.1161 16.2749 14.9305 16.2749C11.7449 16.2749 9.19056 12.7423 9.19056 8.33662C9.19056 3.92928 11.7449 0.400024 14.9305 0.400024ZM22.7228 1.72358C25.7997 1.72358 28.2161 5.72734 27.3932 10.187C26.8376 13.1894 24.8266 15.1837 22.5861 15.1027C22.3614 15.0942 22.1404 15.0655 21.9267 15.0148C21.7717 14.9777 21.6935 14.7362 21.7814 14.5572C22.6361 12.8179 23.1233 10.7257 23.1233 8.47982C23.1233 6.13599 22.591 3.95089 21.6667 2.15925C21.6373 2.10352 21.6154 2.0174 21.6447 1.95323C21.6691 1.90089 21.7143 1.87387 21.757 1.86036C22.0684 1.77255 22.3883 1.72358 22.7228 1.72358ZM7.27627 1.72341C7.61082 1.72341 7.93072 1.77238 8.2433 1.86019C8.28482 1.8737 8.33121 1.90241 8.35563 1.95306C8.38372 2.01723 8.36296 2.10335 8.33366 2.15908C7.40936 3.95072 6.877 6.13582 6.877 8.47965C6.877 10.7255 7.36418 12.8178 8.21888 14.5571C8.30679 14.7361 8.22865 14.9775 8.07358 15.0147C7.85869 15.067 7.6389 15.094 7.41424 15.1025C5.1737 15.1835 3.1627 13.1893 2.60715 10.1869C1.78297 5.72717 4.19934 1.72341 7.27627 1.72341Z" fill="#F2F1E5"/>
</svg>
