<svg width="30" height="31" viewBox="0 0 30 31" fill="none" xmlns="http://www.w3.org/2000/svg">
<path d="M8.87996 17.6048C10.9949 17.6048 12.6899 19.3164 12.6899 21.4464V26.56C12.6899 28.675 10.9949 30.4 8.87996 30.4H3.80998C1.70999 30.4 0 28.675 0 26.56V21.4464C0 19.3164 1.70999 17.6048 3.80998 17.6048H8.87996ZM26.19 17.6048C28.29 17.6048 30 19.3164 30 21.4464V26.56C30 28.675 28.29 30.4 26.19 30.4H21.12C19.0051 30.4 17.3101 28.675 17.3101 26.56V21.4464C17.3101 19.3164 19.0051 17.6048 21.12 17.6048H26.19ZM8.87996 0.400024C10.9949 0.400024 12.6899 2.12505 12.6899 4.24158V9.35516C12.6899 11.4852 10.9949 13.1952 8.87996 13.1952H3.80998C1.70999 13.1952 0 11.4852 0 9.35516V4.24158C0 2.12505 1.70999 0.400024 3.80998 0.400024H8.87996ZM26.19 0.400024C28.29 0.400024 30 2.12505 30 4.24158V9.35516C30 11.4852 28.29 13.1952 26.19 13.1952H21.12C19.0051 13.1952 17.3101 11.4852 17.3101 9.35516V4.24158C17.3101 2.12505 19.0051 0.400024 21.12 0.400024H26.19Z" fill="#F2F1E5"/>
</svg>
